<?xml version="1.0" standalone="no"?>
<!DOCTYPE svg PUBLIC "-//W3C//DTD SVG 20010904//EN"
 "http://www.w3.org/TR/2001/REC-SVG-20010904/DTD/svg10.dtd">
<svg version="1.0" xmlns="http://www.w3.org/2000/svg"
 width="700.000000pt" height="700.000000pt" viewBox="0 0 700.000000 700.000000"
 preserveAspectRatio="xMidYMid meet">
<metadata>
Created by potrace 1.11, written by Peter Selinger 2001-2013
</metadata>
<g transform="translate(0.000000,700.000000) scale(0.100000,-0.100000)"
fill="#000000" stroke="none">
<path d="M887 5834 c-1 -1 -34 -4 -72 -7 -245 -18 -458 -211 -509 -459 -14
-69 -16 -286 -16 -2020 1 -2053 0 -1994 45 -2108 67 -167 227 -305 400 -346
65 -16 273 -17 2750 -19 2888 -1 2750 -4 2871 50 177 78 297 227 340 420 11
49 13 429 14 2003 0 1740 -2 1950 -16 2020 -47 227 -223 404 -449 452 -48 10
-606 13 -2708 14 -1457 1 -2649 0 -2650 0z m5238 -2477 c0 -1039 -3 -1891 -7
-1893 -6 -4 -1037 -6 -2400 -4 l-218 0 0 1895 0 1895 1312 -2 1313 -3 0 -1888z"/>
<path d="M3790 4010 l0 -220 1019 0 c806 0 1020 3 1023 13 2 6 3 104 3 217
l-2 205 -1021 3 -1022 2 0 -220z"/>
<path d="M3790 3282 l0 -219 1014 0 c558 0 1018 3 1023 6 4 3 8 102 8 219 l0
212 -1022 0 -1023 0 0 -218z"/>
<path d="M3790 2552 l0 -219 1018 0 c559 0 1019 4 1022 8 3 4 5 101 4 216 l0
208 -1022 3 -1022 2 0 -218z"/>
</g>
</svg>
